# File created by Blade
# Date/Time:  Wed Jan 21 14:55:15 2015
# Frame Rate: 120.000 fps
#------------------------------------------------------
:FULLY-SPECIFIED
:DEGREES
1159
root 20.629227 35.438036 -23.633552 -174.104153 -0.684671 -179.054186
Spine -18.286020 -0.268917 0.802901
Head 13.179760 -3.075907 0.661273
LeftShoulder -15.348919 -29.446704 18.163838
LeftArm 8.781539 2.519334 -10.643137
LeftForeArm 6.796859 -0.000000 -2.499509
LeftHand -9.835271 -0.000000 -2.492045
LeftHandThumb1 -26.253704 0.000000 33.147579
RightShoulder -13.687201 -5.707114 -7.459071
RightArm 12.560607 39.843128 16.471727
RightForeArm -34.376050 -0.000000 5.879257
RightHand -10.522280 -0.000000 4.233374
RightHandThumb1 -24.326973 -0.000000 -32.862282
LeftUpLeg 3.069991 13.602392 2.703343
LeftLeg -6.271655 -0.000000 0.000000
LeftFoot -20.461779 25.520523 -14.456468
LeftToeBase 26.165417 -0.000000 -0.000000
RightUpLeg 0.877338 -12.470147 -2.935852
RightLeg -3.442329 -0.000000 0.000000
RightFoot -19.081280 -21.952098 17.738665
RightToeBase 24.703744 -0.000000 -0.000000
1160
root 20.628715 35.436870 -23.639346 -174.108712 -0.653050 -179.053809
Spine -18.270909 -0.254083 0.803528
Head 13.182417 -3.057723 0.662811
LeftShoulder -15.359677 -29.424270 18.153084
LeftArm 8.784635 2.524651 -10.615082
LeftForeArm 6.797964 0.000000 -2.487556
LeftHand -9.891393 -0.000000 -2.559143
LeftHandThumb1 -26.253704 0.000000 33.147579
RightShoulder -13.692417 -5.709701 -7.467709
RightArm 12.574736 39.785370 16.451104
RightForeArm -34.249444 -0.000000 5.832817
RightHand -10.464769 -0.000000 4.090011
RightHandThumb1 -24.326973 -0.000000 -32.862282
LeftUpLeg 3.096379 13.616245 2.704555
LeftLeg -6.284023 -0.000000 0.000000
LeftFoot -20.472916 25.538404 -14.468961
LeftToeBase 26.143018 -0.000000 -0.000000
RightUpLeg 0.883490 -12.453234 -2.941623
RightLeg -3.437195 -0.000000 0.000000
RightFoot -19.095367 -21.935669 17.724303
RightToeBase 24.796156 -0.000000 -0.000000
1161
root 20.628539 35.436215 -23.644403 -174.101948 -0.637183 -179.050762
Spine -18.269419 -0.250432 0.809275
Head 13.185463 -3.038136 0.648371
LeftShoulder -15.364784 -29.430081 18.154542
LeftArm 8.754313 2.525332 -10.600692
LeftForeArm 6.789974 -0.000000 -2.482589
LeftHand -9.811989 0.000000 -2.596211
LeftHandThumb1 -26.253704 0.000000 33.147579
RightShoulder -13.690187 -5.724521 -7.477324
RightArm 12.557027 39.785967 16.428943
RightForeArm -34.247469 -0.000000 5.850312
RightHand -10.461908 0.000000 4.065416
RightHandThumb1 -24.326973 -0.000000 -32.862282
LeftUpLeg 3.102804 13.618242 2.706227
LeftLeg -6.286887 -0.000000 0.000000
LeftFoot -20.486457 25.544314 -14.472378
LeftToeBase 26.161760 -0.000000 -0.000000
RightUpLeg 0.883698 -12.434526 -2.939986
RightLeg -3.441334 -0.000000 0.000000
RightFoot -19.096996 -21.947358 17.727808
RightToeBase 24.796121 -0.000000 -0.000000
1162
root 20.628951 35.435523 -23.649122 -174.090706 -0.611447 -179.044442
Spine -18.271876 -0.234163 0.816427
Head 13.202999 -3.047537 0.609971
LeftShoulder -15.370759 -29.430451 18.144907
LeftArm 8.732682 2.550022 -10.570201
LeftForeArm 6.757482 -0.000000 -2.453889
LeftHand -9.832800 -0.000000 -2.618210
LeftHandThumb1 -26.253704 0.000000 33.147579
RightShoulder -13.693351 -5.720849 -7.489731
RightArm 12.522809 39.718435 16.384881
RightForeArm -34.191237 0.000000 5.875458
RightHand -10.449443 0.000000 4.070630
RightHandThumb1 -24.326973 -0.000000 -32.862282
LeftUpLeg 3.108586 13.637651 2.710321
LeftLeg -6.297564 -0.000000 0.000000
LeftFoot -20.487630 25.561775 -14.470638
LeftToeBase 26.158347 -0.000000 -0.000000
RightUpLeg 0.871608 -12.407664 -2.933721
RightLeg -3.432576 -0.000000 0.000000
RightFoot -19.109372 -21.947311 17.735426
RightToeBase 24.806528 -0.000000 -0.000000
1163
root 20.628705 35.434861 -23.653765 -174.082729 -0.593242 -179.046781
Spine -18.268397 -0.226178 0.812470
Head 13.176112 -3.048201 0.613614
LeftShoulder -15.381891 -29.419984 18.141345
LeftArm 8.730257 2.516843 -10.557686
LeftForeArm 6.753264 -0.000000 -2.458678
LeftHand -9.830695 0.000000 -2.596892
LeftHandThumb1 -26.253704 0.000000 33.147579
RightShoulder -13.696486 -5.734575 -7.496232
RightArm 12.473419 39.623625 16.329260
RightForeArm -34.080606 -0.000000 5.909208
RightHand -10.433852 -0.000000 4.097897
RightHandThumb1 -24.326973 -0.000000 -32.862282
LeftUpLeg 3.115126 13.637021 2.705620
LeftLeg -6.305076 -0.000000 0.000000
LeftFoot -20.503308 25.580899 -14.483966
LeftToeBase 26.115677 -0.000000 -0.000000
RightUpLeg 0.866473 -12.403762 -2.936980
RightLeg -3.430633 -0.000000 0.000000
RightFoot -19.114036 -21.946371 17.701042
RightToeBase 24.786325 -0.000000 -0.000000
1164
root 20.628948 35.434351 -23.658037 -174.072253 -0.569435 -179.045554
Spine -18.264552 -0.217598 0.812457
Head 13.161795 -3.056561 0.600137
LeftShoulder -15.392227 -29.429924 18.145194
LeftArm 8.704109 2.489192 -10.544088
LeftForeArm 6.789712 0.000000 -2.457779
LeftHand -9.830684 0.000000 -2.595535
LeftHandThumb1 -26.253704 0.000000 33.147579
RightShoulder -13.690565 -5.732742 -7.489236
RightArm 12.432159 39.596017 16.260781
RightForeArm -34.056122 -0.000000 5.938485
RightHand -10.378260 -0.000000 4.309241
RightHandThumb1 -24.326973 -0.000000 -32.862282
LeftUpLeg 3.120500 13.660975 2.704771
LeftLeg -6.312434 -0.000000 0.000000
LeftFoot -20.509633 25.574436 -14.492723
LeftToeBase 26.143100 -0.000000 -0.000000
RightUpLeg 0.853031 -12.374023 -2.935790
RightLeg -3.418249 -0.000000 0.000000
RightFoot -19.130422 -21.947214 17.714612
RightToeBase 24.841987 -0.000000 -0.000000
